<?xml version="1.0" encoding="utf-8"?>
<!-- Generator: Adobe Illustrator 22.1.0, SVG Export Plug-In . SVG Version: 6.00 Build 0)  -->
<svg version="1.0" xmlns="http://www.w3.org/2000/svg" xmlns:xlink="http://www.w3.org/1999/xlink" x="0px" y="0px"
	 viewBox="0 0 100 100" style="enable-background:new 0 0 100 100;" xml:space="preserve">
<style type="text/css">
	.st0{fill:#FCAEAE;}
</style>
<g id="Layer_1">
</g>
<g id="Layer_2">
	<path class="st0" d="M59.9,22.4c-12.9-9.2-30.8-6.3-40,6.6s-6.3,30.8,6.6,40c11.8,8.4,27.8,6.7,37.5-3.6l15.8,11.3
		c1.2,0.8,2.8,0.6,3.6-0.6L85,74c0.8-1.2,0.6-2.8-0.6-3.6L68.6,59.1C75.2,46.6,71.7,30.9,59.9,22.4z M60.1,57.9
		c-6.7,9.3-19.7,11.5-29,4.8s-11.5-19.7-4.8-29s19.7-11.5,29-4.8S66.8,48.5,60.1,57.9z"/>
</g>
</svg>
